#!OML:ASF F:\VICON\USERDATA\INSTALL\rory3\rory3.ASF
:FULLY-SPECIFIED
:DEGREES
3312
root 1.75982 18.1034 1.46771 -2.4856 29.3088 -19.1869
lowerback 5.52581 1.27799 -0.109678
upperback -1.73858 1.39683 -7.94024
thorax -4.73714 0.595277 -8.48148
lowerneck -21.746 -11.8706 -14.0152
upperneck -2.31556 -13.1028 16.9442
head 4.84658 -5.4243 6.11929
rclavicle 7.15625e-014 1.59028e-014
rhumerus 43.7329 -14.3495 1.26732
rradius 44.5899
rwrist 49.228
rhand -64.3787 -1.3972
rfingers 7.12502
rthumb -36.3096 -27.6371
lclavicle 7.15625e-014 1.59028e-014
lhumerus 76.2583 -56.8156 38.4357
lradius 41.2221
lwrist -28.4284
lhand -28.1794 41.8985
lfingers 7.12502
lthumb -1.55919 -288.127
rfemur -4.41227 -5.41509 25.4593
rtibia 22.6711
rfoot -10.9066 -23.0927
rtoes 2.50676
lfemur -16.639 -2.71028 -1.39367
ltibia 30.5967
lfoot -16.6353 -2.85265
ltoes -10.0283
3313
root 1.76971 18.108 1.46223 -2.32787 29.3976 -19.205
lowerback 5.55264 1.30063 -0.184168
upperback -1.81672 1.41596 -7.91505
thorax -4.83423 0.60367 -8.41654
lowerneck -21.6331 -11.9648 -14.1561
upperneck -2.4366 -13.1962 16.9749
head 4.81749 -5.47388 6.1409
rclavicle -7.31528e-014 2.22639e-014
rhumerus 44.158 -15.5769 -0.42295
rradius 43.7242
rwrist 48.1952
rhand -63.695 -1.22415
rfingers 7.12502
rthumb -35.6619 -27.623
lclavicle -7.31528e-014 2.22639e-014
lhumerus 76.2583 -56.8156 38.4357
lradius 41.2221
lwrist -28.4284
lhand -28.1794 41.8985
lfingers 7.12502
lthumb -1.55919 -288.127
rfemur -4.59891 -5.497 25.4587
rtibia 22.6959
rfoot -10.9322 -23.0843
rtoes 2.81203
lfemur -16.8452 -2.75227 -1.41803
ltibia 30.639
lfoot -16.6054 -2.82188
ltoes -10.1945
3314
root 1.78007 18.1112 1.46115 -2.27942 29.5795 -19.3574
lowerback 5.61494 1.26769 -0.118822
upperback -1.87381 1.37184 -7.85867
thorax -4.93592 0.576692 -8.39405
lowerneck -21.6452 -12.0617 -14.3374
upperneck -2.47079 -13.2773 17.0198
head 4.83546 -5.50884 6.17066
rclavicle 2.22639e-014 2.8625e-014
rhumerus 44.7161 -16.9076 -2.09373
rradius 42.6397
rwrist 47.2523
rhand -63.02 -2.11475
rfingers 7.12502
rthumb -35.0219 -28.6657
lclavicle 2.22639e-014 2.8625e-014
lhumerus 76.2583 -56.8156 38.4357
lradius 41.2221
lwrist -28.4284
lhand -28.1794 41.8985
lfingers 7.12502
lthumb -1.55919 -288.127
rfemur -4.74136 -5.70612 25.5716
rtibia 22.7011
rfoot -10.7029 -23.1327
rtoes 2.36425
lfemur -17.0369 -2.7901 -1.31069
ltibia 30.6791
lfoot -16.6235 -2.91771
ltoes -10.4224
3315
root 1.79012 18.1136 1.4597 -2.17336 29.8021 -19.4414
lowerback 5.61847 1.13657 -0.177084
upperback -1.90581 1.19549 -7.67334
thorax -5.00059 0.49084 -8.14044
lowerneck -21.7625 -12.1473 -14.9524
upperneck -2.47932 -13.2384 17.2783
head 4.90708 -5.467 6.3532
rclavicle -6.67916e-014 5.08889e-014
rhumerus 45.6466 -18.3912 -3.80904
rradius 41.5672
rwrist 46.4136
rhand -62.4658 -4.30095
rfingers 7.12502
rthumb -34.496 -30.9732
lclavicle -6.67916e-014 5.08889e-014
lhumerus 76.2583 -56.8156 38.4357
lradius 41.2221
lwrist -28.4284
lhand -28.1794 41.8985
lfingers 7.12502
lthumb -1.55919 -288.127
rfemur -4.88516 -5.81651 25.6213
rtibia 22.6393
rfoot -10.6489 -23.3038
rtoes 1.91937
lfemur -17.3093 -2.87487 -1.27297
ltibia 30.7082
lfoot -16.5695 -2.98867
ltoes -10.7583
3316
root 1.80048 18.1176 1.45726 -2.02554 30.1116 -19.5204
lowerback 5.57667 0.89609 -0.249945
upperback -1.92071 0.878476 -7.38535
thorax -5.03957 0.337926 -7.75006
lowerneck -21.8771 -12.1834 -15.7566
upperneck -2.60635 -13.0603 17.4873
head 4.92533 -5.36049 6.57527
rclavicle 1.51076e-014 -4.45278e-014
rhumerus 46.9881 -20.047 -5.83433
rradius 40.5633
rwrist 45.8618
rhand -62.2611 -6.56929
rfingers 7.12502
rthumb -34.3017 -33.2856
lclavicle 1.51076e-014 -4.45278e-014
lhumerus 76.2583 -56.8156 38.4357
lradius 41.2221
lwrist -28.4284
lhand -28.1794 41.8985
lfingers 7.12502
lthumb -1.55919 -288.127
rfemur -5.04685 -6.05005 25.6593
rtibia 22.5477
rfoot -10.5717 -23.4206
rtoes 1.83105
lfemur -17.6505 -3.06147 -1.25259
ltibia 30.7042
lfoot -16.5217 -2.99952
ltoes -10.8022
3317
root 1.80972 18.121 1.45495 -1.96624 30.4461 -19.5125
lowerback 5.75389 0.752937 -0.339232
upperback -1.98573 0.672579 -7.25751
thorax -5.23801 0.235017 -7.5471
lowerneck -21.7427 -12.246 -16.2232
upperneck -2.72814 -13.0324 17.5267
head 4.89459 -5.35004 6.67099
rclavicle -8.82604e-014 6.99722e-014
rhumerus 47.8866 -21.644 -7.80285
rradius 39.6495
rwrist 45.3776
rhand -61.9601 -7.36238
rfingers 7.12502
rthumb -34.0158 -34.1426
lclavicle -8.82604e-014 6.99722e-014
lhumerus 76.2583 -56.8156 38.4357
lradius 41.2221
lwrist -28.4284
lhand -28.1794 41.8985
lfingers 7.12502
lthumb -1.55919 -288.127
rfemur -5.04731 -6.20817 25.6053
rtibia 22.4263
rfoot -10.616 -23.5276
rtoes 1.93484
lfemur -17.833 -3.32133 -1.31763
ltibia 30.6761
lfoot -16.4493 -3.04308
ltoes -10.6885
3318
root 1.81849 18.1251 1.45271 -1.83781 30.7871 -19.4438
lowerback 5.87192 0.670733 -0.440264
upperback -2.07751 0.545073 -7.22784
thorax -5.41974 0.170691 -7.45082
lowerneck -21.6361 -12.3546 -16.5018
upperneck -2.64397 -13.1347 17.5079
head 4.93524 -5.40408 6.69285
rclavicle 6.36111e-014 -1.59028e-014
rhumerus 48.8067 -23.2483 -9.91752
rradius 38.5358
rwrist 44.8474
rhand -61.4853 -7.92359
rfingers 7.12502
rthumb -33.5647 -34.8029
lclavicle 6.36111e-014 -1.59028e-014
lhumerus 76.2583 -56.8156 38.4357
lradius 41.2221
lwrist -28.4284
lhand -28.1794 41.8985
lfingers 7.12502
lthumb -1.55919 -288.127
rfemur -5.07941 -6.31724 25.5074
rtibia 22.2958
rfoot -10.7596 -23.6422
rtoes 2.32854
lfemur -18.0519 -3.49034 -1.44073
ltibia 30.6283
lfoot -16.3848 -3.15299
ltoes -10.6849
3319
root 1.82596 18.1286 1.44894 -1.76283 31.1458 -19.5445
lowerback 6.00772 0.578269 -0.360182
upperback -2.18043 0.416438 -7.20009
thorax -5.6223 0.0986812 -7.46235
lowerneck -21.5745 -12.4408 -16.6519
upperneck -2.56881 -13.2343 17.5204
head 4.97535 -5.45354 6.7041
rclavicle 1.27222e-014 -5.40694e-014
rhumerus 49.9694 -24.7765 -12.1086
rradius 37.056
rwrist 44.2549
rhand -61.1222 -8.6855
rfingers 7.12502
rthumb -33.2195 -35.6391
lclavicle 1.27222e-014 -5.40694e-014
lhumerus 76.2583 -56.8156 38.4357
lradius 41.2221
lwrist -28.4284
lhand -28.1794 41.8985
lfingers 7.12502
lthumb -1.55919 -288.127
rfemur -5.14867 -6.46988 25.5808
rtibia 22.1265
rfoot -10.8399 -23.8778
rtoes 2.20002
lfemur -18.3174 -3.65053 -1.38396
ltibia 30.5898
lfoot -16.3483 -3.31012
ltoes -10.4196
3320
root 1.83331 18.1328 1.4455 -1.68537 31.4696 -19.6098
lowerback 6.19771 0.510372 -0.339852
upperback -2.30131 0.312627 -7.16883
thorax -5.87257 0.03994 -7.43977
lowerneck -21.2806 -12.4981 -16.7425
upperneck -2.72037 -13.3174 17.4885
head 4.90131 -5.51092 6.70373
rclavicle -4.92986e-014 9.54166e-015
rhumerus 51.0155 -26.1222 -13.9587
rradius 35.6403
rwrist 43.1377
rhand -60.8942 -10.2582
rfingers 7.12502
rthumb -33.0027 -37.2578
lclavicle -4.92986e-014 9.54166e-015
lhumerus 76.2583 -56.8156 38.4357
lradius 41.2221
lwrist -28.4284
lhand -28.1794 41.8985
lfingers 7.12502
lthumb -1.55919 -288.127
rfemur -5.16385 -6.6014 25.6053
rtibia 21.8932
rfoot -10.9582 -24.0545
rtoes 2.36494
lfemur -18.5764 -3.83136 -1.35769
ltibia 30.5783
lfoot -16.2976 -3.4326
ltoes -10.0501
3321
root 1.84105 18.1364 1.4443 -1.65753 31.8159 -19.8029
lowerback 6.29045 0.445514 -0.225515
upperback -2.3464 0.231149 -7.1138
thorax -5.98358 -0.0069706 -7.44161
lowerneck -21.0608 -12.6009 -16.8933
upperneck -3.0125 -13.4324 17.642
head 4.82293 -5.56989 6.76816
rclavicle 5.96354e-014 2.54444e-014
rhumerus 52.1477 -27.6964 -16.0505
rradius 34.4047
rwrist 42.252
rhand -59.3247 -12.1224
rfingers 7.12502
rthumb -31.5087 -39.4257
lclavicle 5.96354e-014 2.54444e-014
lhumerus 76.2583 -56.8156 38.4357
lradius 41.2221
lwrist -28.4284
lhand -28.1794 41.8985
lfingers 7.12502
lthumb -1.55919 -288.127
rfemur -5.16696 -6.77222 25.7456
rtibia 21.6171
rfoot -10.9045 -24.212
rtoes 2.26651
lfemur -18.8821 -3.94715 -1.21451
ltibia 30.5904
lfoot -16.2187 -3.59559
ltoes -10.1009
3322
root 1.85116 18.1403 1.44196 -1.64436 32.2234 -20.1164
lowerback 6.28212 0.370682 0.048674
upperback -2.3804 0.155705 -7.04885
thorax -6.02412 -0.0555814 -7.52258
lowerneck -20.8676 -12.7133 -16.9958
upperneck -3.28755 -13.5662 17.7542
head 4.74974 -5.63873 6.80766
rclavicle -3.4191e-014 -6.36111e-015
rhumerus 53.4907 -29.309 -18.4589
rradius 33.2838
rwrist 41.7079
rhand -58.3875 -12.3953
rfingers 7.12502
rthumb -30.6155 -39.8694
lclavicle -3.4191e-014 -6.36111e-015
lhumerus 76.2583 -56.8156 38.4357
lradius 41.2221
lwrist -28.4284
lhand -28.1794 41.8985
lfingers 7.12502
lthumb -1.55919 -288.127
rfemur -5.20949 -6.97201 25.9854
rtibia 21.3269
rfoot -10.8095 -24.354
rtoes 1.82775
lfemur -19.2677 -4.0018 -0.966675
ltibia 30.6045
lfoot -16.1545 -3.88099
ltoes -10.2432
3323
root 1.85952 18.1422 1.44039 -1.5924 32.5887 -20.2246
lowerback 6.32837 0.31422 0.121718
upperback -2.43052 0.0828151 -7.03153
thorax -6.11363 -0.0970223 -7.54127
lowerneck -20.417 -12.7945 -17.1272
upperneck -3.6682 -13.6877 17.8983
head 4.61126 -5.71516 6.87344
rclavicle 4.92986e-014 9.54166e-015
rhumerus 54.9516 -30.7586 -20.9526
rradius 32.2324
rwrist 41.287
rhand -57.635 -13.1581
rfingers 7.12502
rthumb -29.8976 -40.7639
lclavicle 4.92986e-014 9.54166e-015
lhumerus 76.2583 -56.8156 38.4357
lradius 41.2221
lwrist -28.4284
lhand -28.1794 41.8985
lfingers 7.12502
lthumb -1.55919 -288.127
rfemur -5.15848 -7.05009 26.0356
rtibia 21.0137
rfoot -10.9247 -24.4822
rtoes 2.11747
lfemur -19.5545 -4.02011 -0.917986
ltibia 30.6173
lfoot -16.0939 -4.17661
ltoes -10.1226
